<?xml version="1.0" encoding="utf-8"?>
<svg version="1.1" id="Layer_1" xmlns="http://www.w3.org/2000/svg" xmlns:xlink="http://www.w3.org/1999/xlink" x="0px" y="0px"
	 viewBox="0 0 500 500" style="enable-background:new 0 0 500 500;" xml:space="preserve">
<style type="text/css">
	.st0{fill:#FFFFFF;}
</style>
<path class="st0" d="M481.62,116.4c0,0-50.97-6.06-65.1,27.76c-19.18-34.32-66.11-27.76-66.11-27.76s-10.72,78.32,45.55,78.32
	c-7.19,18.07-14.48,27.61-26.87,30.94c-19.68,5.3-31.89-27.64-40.5-47.43c-24.96-57.4-82.17-97.54-148.75-97.54
	c-89.54,0-162.12,72.59-162.12,162.12c0,89.54,76.59,185.12,227.98,175.88c136.42-8.33,218.01-115.82,196.06-223.98
	C490.71,187.05,481.62,116.4,481.62,116.4z M94.9,205.85c-12.94,0-23.43-10.49-23.43-23.43c0-12.94,10.49-23.43,23.43-23.43
	c12.94,0,23.43,10.49,23.43,23.43C118.33,195.37,107.84,205.85,94.9,205.85z"/>
</svg>
