<?xml version="1.0" encoding="UTF-8"?>
<svg enable-background="new 0 0 500 500" version="1.1" viewBox="0 0 500 500" xml:space="preserve" xmlns="http://www.w3.org/2000/svg">
<style type="text/css">
	.st0{fill:#FFFFFF;}
</style>
<path class="st0" d="m307.53 495.51c-7.07 0-13.95-2.79-19.06-7.9l-95.8-95.8-73.84 23.16c-9.58 3-20.03 0.44-27.13-6.66s-9.67-17.55-6.66-27.13l23.16-73.83-95.8-95.8c-6.51-6.5-9.24-15.88-7.27-24.86s8.4-16.34 17.03-19.51l436.33-160.27c9.87-3.62 20.93-1.18 28.36 6.24 7.43 7.43 9.87 18.5 6.24 28.36l-160.25 436.33c-3.17 8.64-10.53 15.06-19.51 17.04-1.93 0.42-3.87 0.63-5.8 0.63zm-10.76-75.85l125.62-342.05-342.05 125.62 216.43 216.43z"/>
</svg>
